<svg width="229" height="222" xmlns="http://www.w3.org/2000/svg" clip-rule="evenodd">

 <g>
  <title>background</title>
  <rect fill="none" id="canvas_background" height="602" width="802" y="-1" x="-1"/>
 </g>
 <g>
  <title>Layer 1</title>
  <rect id="svg_1" fill="white" height="222" width="229" y="0" x="0"/>
  <g id="svg_2" transform="matrix(1.51172,0,0,1.51172,-4.29975,-13.0937) ">
   <path id="svg_3" fill="rgb(213,218,223)" d="m60,76.661c0,-0.365 -0.296,-0.661 -0.661,-0.661l-36.678,0c-0.365,0 -0.661,0.296 -0.661,0.661l0,0.678c0,0.365 0.296,0.661 0.661,0.661l36.678,0c0.365,0 0.661,-0.296 0.661,-0.661l0,-0.678z"/>
  </g>
  <g id="svg_4" transform="matrix(1.51172,0,0,1.51172,-4.29975,-13.0937) ">
   <path id="svg_5" fill="rgb(213,218,223)" d="m54,96.661c0,-0.365 -0.296,-0.661 -0.661,-0.661l-30.678,0c-0.365,0 -0.661,0.296 -0.661,0.661l0,0.678c0,0.365 0.296,0.661 0.661,0.661l30.678,0c0.365,0 0.661,-0.296 0.661,-0.661l0,-0.678z"/>
  </g>
  <g id="svg_6" transform="matrix(1.51172,0,0,1.51172,-4.29975,-13.0937) ">
   <path id="svg_7" fill="rgb(213,218,223)" d="m69,86.661c0,-0.365 -0.296,-0.661 -0.661,-0.661l-45.678,0c-0.365,0 -0.661,0.296 -0.661,0.661l0,0.678c0,0.365 0.296,0.661 0.661,0.661l45.678,0c0.365,0 0.661,-0.296 0.661,-0.661l0,-0.678z"/>
  </g>
  <g id="svg_8" transform="matrix(1.51172,0,0,1.51172,-4.29975,-13.0937) ">
   <path id="svg_9" fill="rgb(213,218,223)" d="m75,81.661c0,-0.365 -0.296,-0.661 -0.661,-0.661l-51.678,0c-0.365,0 -0.661,0.296 -0.661,0.661l0,0.678c0,0.365 0.296,0.661 0.661,0.661l51.678,0c0.365,0 0.661,-0.296 0.661,-0.661l0,-0.678z"/>
  </g>
  <g id="svg_10" transform="matrix(1.51172,0,0,1.51172,-4.29975,-13.0937) ">
   <path id="svg_11" fill="rgb(213,218,223)" d="m75,91.661c0,-0.365 -0.296,-0.661 -0.661,-0.661l-51.678,0c-0.365,0 -0.661,0.296 -0.661,0.661l0,0.678c0,0.365 0.296,0.661 0.661,0.661l51.678,0c0.365,0 0.661,-0.296 0.661,-0.661l0,-0.678z"/>
  </g>
  <g id="svg_12">
   <g id="svg_13" transform="matrix(1.51172,0,0,1.51172,-4.29975,-13.0937) ">
    <rect id="svg_14" fill="rgb(230,233,236)" height="36.577" width="56.029" y="39.377" x="21.092"/>
   </g>
   <g id="svg_15" transform="matrix(1.51172,0,0,1.51172,-4.29975,-13.0937) ">
    <path id="svg_16" fill="rgb(248,249,250)" fill-rule="nonzero" d="m86.113,79.237c0,0 -14.677,-27.914 -25.785,-30.18c-11.107,-2.267 -15.458,19.696 -22.104,16.783c-1.235,-0.541 -8.041,-8.267 -13.536,-6.099c-3.953,1.559 -12.377,19.599 -12.377,19.599l73.802,0l0,-0.103z"/>
    <path id="svg_17" fill="rgb(248,249,250)" fill-rule="nonzero" d="m37.56,57.939c1.277,0 2.313,-1.023 2.313,-2.285c0,-1.262 -1.036,-2.285 -2.313,-2.285c-1.278,0 -2.314,1.023 -2.314,2.285c0,1.262 1.036,2.285 2.314,2.285z"/>
   </g>
  </g>
  <g id="svg_18" transform="matrix(0.69874,0,0,0.69874,65.7088,66.5785) ">
   <path id="svg_19" fill="rgb(213,218,223)" d="m60,146c0,-0.552 -0.448,-1 -1,-1l-36,0c-0.552,0 -1,0.448 -1,1c0,0.552 0.448,1 1,1l36,0c0.552,0 1,-0.448 1,-1z"/>
  </g>
  <g id="svg_20" transform="matrix(0.69874,0,0,0.69874,65.7088,66.5785) ">
   <path id="svg_21" fill="rgb(213,218,223)" d="m54,166c0,-0.552 -0.448,-1 -1,-1l-30,0c-0.552,0 -1,0.448 -1,1c0,0.552 0.448,1 1,1l30,0c0.552,0 1,-0.448 1,-1z"/>
  </g>
  <g id="svg_22" transform="matrix(0.69874,0,0,0.69874,65.7088,66.5785) ">
   <path id="svg_23" fill="rgb(213,218,223)" d="m69,156c0,-0.552 -0.448,-1 -1,-1l-45,0c-0.552,0 -1,0.448 -1,1c0,0.552 0.448,1 1,1l45,0c0.552,0 1,-0.448 1,-1z"/>
  </g>
  <g id="svg_24" transform="matrix(0.69874,0,0,0.69874,65.7088,66.5785) ">
   <path id="svg_25" fill="rgb(213,218,223)" d="m75,151c0,-0.552 -0.448,-1 -1,-1l-51,0c-0.552,0 -1,0.448 -1,1c0,0.552 0.448,1 1,1l51,0c0.552,0 1,-0.448 1,-1z"/>
  </g>
  <g id="svg_26" transform="matrix(0.69874,0,0,0.69874,65.7088,66.5785) ">
   <path id="svg_27" fill="rgb(213,218,223)" d="m75,161c0,-0.552 -0.448,-1 -1,-1l-51,0c-0.552,0 -1,0.448 -1,1c0,0.552 0.448,1 1,1l51,0c0.552,0 1,-0.448 1,-1z"/>
  </g>
  <g id="svg_28">
   <g id="svg_29" transform="matrix(0.69874,0,0,0.69874,65.7088,66.5785) ">
    <rect id="svg_30" fill="rgb(230,233,236)" height="36.577" width="56.029" y="108.377" x="21.092"/>
   </g>
   <g id="svg_31" transform="matrix(0.69874,0,0,0.69874,65.7088,66.5785) ">
    <path id="svg_32" fill="rgb(248,249,250)" fill-rule="nonzero" d="m86.113,148.237c0,0 -14.677,-27.914 -25.785,-30.18c-11.107,-2.267 -15.458,19.696 -22.104,16.783c-1.235,-0.541 -8.041,-8.267 -13.536,-6.099c-3.953,1.559 -12.377,19.599 -12.377,19.599l73.802,0l0,-0.103z"/>
    <path id="svg_33" fill="rgb(248,249,250)" fill-rule="nonzero" d="m37.56,126.939c1.277,0 2.313,-1.023 2.313,-2.285c0,-1.262 -1.036,-2.285 -2.313,-2.285c-1.278,0 -2.314,1.023 -2.314,2.285c0,1.262 1.036,2.285 2.314,2.285z"/>
   </g>
  </g>
  <g id="svg_34" transform="matrix(0.69874,0,0,0.69874,65.7088,66.5785) ">
   <path id="svg_35" fill="rgb(213,218,223)" d="m60,215c0,-0.552 -0.448,-1 -1,-1l-36,0c-0.552,0 -1,0.448 -1,1c0,0.552 0.448,1 1,1l36,0c0.552,0 1,-0.448 1,-1z"/>
  </g>
  <g id="svg_36" transform="matrix(0.69874,0,0,0.69874,65.7088,66.5785) ">
   <path id="svg_37" fill="rgb(213,218,223)" d="m75,220c0,-0.552 -0.448,-1 -1,-1l-51,0c-0.552,0 -1,0.448 -1,1c0,0.552 0.448,1 1,1l51,0c0.552,0 1,-0.448 1,-1z"/>
  </g>
  <g id="svg_38">
   <g id="svg_39" transform="matrix(0.69874,0,0,0.69874,65.7088,66.5785) ">
    <rect id="svg_40" fill="rgb(230,233,236)" height="36.577" width="56.029" y="177.377" x="21.092"/>
   </g>
   <g id="svg_41" transform="matrix(0.69874,0,0,0.69874,65.7088,66.5785) ">
    <path id="svg_42" fill="rgb(248,249,250)" fill-rule="nonzero" d="m86.113,217.237c0,0 -14.677,-27.914 -25.785,-30.18c-11.107,-2.267 -15.458,19.696 -22.104,16.783c-1.235,-0.541 -8.041,-8.267 -13.536,-6.099c-3.953,1.559 -12.377,19.599 -12.377,19.599l73.802,0l0,-0.103z"/>
    <path id="svg_43" fill="rgb(248,249,250)" fill-rule="nonzero" d="m37.56,195.939c1.277,0 2.313,-1.023 2.313,-2.285c0,-1.262 -1.036,-2.285 -2.313,-2.285c-1.278,0 -2.314,1.023 -2.314,2.285c0,1.262 1.036,2.285 2.314,2.285z"/>
   </g>
  </g>
  <g id="svg_44" transform="matrix(0.69874,0,0,0.69874,65.7088,66.5785) ">
   <path id="svg_45" fill="rgb(213,218,223)" d="m126,77c0,-0.552 -0.448,-1 -1,-1l-36,0c-0.552,0 -1,0.448 -1,1c0,0.552 0.448,1 1,1l36,0c0.552,0 1,-0.448 1,-1z"/>
  </g>
  <g id="svg_46" transform="matrix(0.69874,0,0,0.69874,65.7088,66.5785) ">
   <path id="svg_47" fill="rgb(213,218,223)" d="m120,97c0,-0.552 -0.448,-1 -1,-1l-30,0c-0.552,0 -1,0.448 -1,1c0,0.552 0.448,1 1,1l30,0c0.552,0 1,-0.448 1,-1z"/>
  </g>
  <g id="svg_48" transform="matrix(0.69874,0,0,0.69874,65.7088,66.5785) ">
   <path id="svg_49" fill="rgb(213,218,223)" d="m135,87c0,-0.552 -0.448,-1 -1,-1l-45,0c-0.552,0 -1,0.448 -1,1c0,0.552 0.448,1 1,1l45,0c0.552,0 1,-0.448 1,-1z"/>
  </g>
  <g id="svg_50" transform="matrix(0.69874,0,0,0.69874,65.7088,66.5785) ">
   <path id="svg_51" fill="rgb(213,218,223)" d="m141,82c0,-0.552 -0.448,-1 -1,-1l-51,0c-0.552,0 -1,0.448 -1,1c0,0.552 0.448,1 1,1l51,0c0.552,0 1,-0.448 1,-1z"/>
  </g>
  <g id="svg_52" transform="matrix(0.69874,0,0,0.69874,65.7088,66.5785) ">
   <path id="svg_53" fill="rgb(213,218,223)" d="m141,92c0,-0.552 -0.448,-1 -1,-1l-51,0c-0.552,0 -1,0.448 -1,1c0,0.552 0.448,1 1,1l51,0c0.552,0 1,-0.448 1,-1z"/>
  </g>
  <g id="svg_54">
   <g id="svg_55" transform="matrix(0.69874,0,0,0.69874,65.7088,66.5785) ">
    <rect id="svg_56" fill="rgb(230,233,236)" height="36.577" width="56.029" y="39.377" x="87.092"/>
   </g>
   <g id="svg_57" transform="matrix(0.69874,0,0,0.69874,65.7088,66.5785) ">
    <path id="svg_58" fill="rgb(248,249,250)" fill-rule="nonzero" d="m152.113,79.237c0,0 -14.677,-27.914 -25.785,-30.18c-11.107,-2.267 -15.458,19.696 -22.104,16.783c-1.235,-0.541 -8.041,-8.267 -13.536,-6.099c-3.953,1.559 -12.377,19.599 -12.377,19.599l73.802,0l0,-0.103z"/>
    <path id="svg_59" fill="rgb(248,249,250)" fill-rule="nonzero" d="m103.56,57.939c1.277,0 2.313,-1.023 2.313,-2.285c0,-1.262 -1.036,-2.285 -2.313,-2.285c-1.278,0 -2.314,1.023 -2.314,2.285c0,1.262 1.036,2.285 2.314,2.285z"/>
   </g>
  </g>
  <g id="svg_60" transform="matrix(0.69874,0,0,0.69874,65.7088,66.5785) ">
   <path id="svg_61" fill="rgb(213,218,223)" d="m126,146c0,-0.552 -0.448,-1 -1,-1l-36,0c-0.552,0 -1,0.448 -1,1c0,0.552 0.448,1 1,1l36,0c0.552,0 1,-0.448 1,-1z"/>
  </g>
  <g id="svg_62" transform="matrix(0.69874,0,0,0.69874,65.7088,66.5785) ">
   <path id="svg_63" fill="rgb(213,218,223)" d="m120,166c0,-0.552 -0.448,-1 -1,-1l-30,0c-0.552,0 -1,0.448 -1,1c0,0.552 0.448,1 1,1l30,0c0.552,0 1,-0.448 1,-1z"/>
  </g>
  <g id="svg_64" transform="matrix(0.69874,0,0,0.69874,65.7088,66.5785) ">
   <path id="svg_65" fill="rgb(213,218,223)" d="m135,156c0,-0.552 -0.448,-1 -1,-1l-45,0c-0.552,0 -1,0.448 -1,1c0,0.552 0.448,1 1,1l45,0c0.552,0 1,-0.448 1,-1z"/>
  </g>
  <g id="svg_66" transform="matrix(0.69874,0,0,0.69874,65.7088,66.5785) ">
   <path id="svg_67" fill="rgb(213,218,223)" d="m141,151c0,-0.552 -0.448,-1 -1,-1l-51,0c-0.552,0 -1,0.448 -1,1c0,0.552 0.448,1 1,1l51,0c0.552,0 1,-0.448 1,-1z"/>
  </g>
  <g id="svg_68" transform="matrix(0.69874,0,0,0.69874,65.7088,66.5785) ">
   <path id="svg_69" fill="rgb(213,218,223)" d="m141,161c0,-0.552 -0.448,-1 -1,-1l-51,0c-0.552,0 -1,0.448 -1,1c0,0.552 0.448,1 1,1l51,0c0.552,0 1,-0.448 1,-1z"/>
  </g>
  <g id="svg_70">
   <g id="svg_71" transform="matrix(0.69874,0,0,0.69874,65.7088,66.5785) ">
    <rect id="svg_72" fill="rgb(230,233,236)" height="36.577" width="56.029" y="108.377" x="87.092"/>
   </g>
   <g id="svg_73" transform="matrix(0.69874,0,0,0.69874,65.7088,66.5785) ">
    <path id="svg_74" fill="rgb(248,249,250)" fill-rule="nonzero" d="m152.113,148.237c0,0 -14.677,-27.914 -25.785,-30.18c-11.107,-2.267 -15.458,19.696 -22.104,16.783c-1.235,-0.541 -8.041,-8.267 -13.536,-6.099c-3.953,1.559 -12.377,19.599 -12.377,19.599l73.802,0l0,-0.103z"/>
    <path id="svg_75" fill="rgb(248,249,250)" fill-rule="nonzero" d="m103.56,126.939c1.277,0 2.313,-1.023 2.313,-2.285c0,-1.262 -1.036,-2.285 -2.313,-2.285c-1.278,0 -2.314,1.023 -2.314,2.285c0,1.262 1.036,2.285 2.314,2.285z"/>
   </g>
  </g>
  <g id="svg_76" transform="matrix(0.69874,0,0,0.69874,65.7088,66.5785) ">
   <path id="svg_77" fill="rgb(213,218,223)" d="m126,215c0,-0.552 -0.448,-1 -1,-1l-36,0c-0.552,0 -1,0.448 -1,1c0,0.552 0.448,1 1,1l36,0c0.552,0 1,-0.448 1,-1z"/>
  </g>
  <g id="svg_78" transform="matrix(0.69874,0,0,0.69874,65.7088,66.5785) ">
   <path id="svg_79" fill="rgb(213,218,223)" d="m141,220c0,-0.552 -0.448,-1 -1,-1l-51,0c-0.552,0 -1,0.448 -1,1c0,0.552 0.448,1 1,1l51,0c0.552,0 1,-0.448 1,-1z"/>
  </g>
  <g id="svg_80">
   <g id="svg_81" transform="matrix(0.69874,0,0,0.69874,65.7088,66.5785) ">
    <rect id="svg_82" fill="rgb(230,233,236)" height="36.577" width="56.029" y="177.377" x="87.092"/>
   </g>
   <g id="svg_83" transform="matrix(0.69874,0,0,0.69874,65.7088,66.5785) ">
    <path id="svg_84" fill="rgb(248,249,250)" fill-rule="nonzero" d="m152.113,217.237c0,0 -14.677,-27.914 -25.785,-30.18c-11.107,-2.267 -15.458,19.696 -22.104,16.783c-1.235,-0.541 -8.041,-8.267 -13.536,-6.099c-3.953,1.559 -12.377,19.599 -12.377,19.599l73.802,0l0,-0.103z"/>
    <path id="svg_85" fill="rgb(248,249,250)" fill-rule="nonzero" d="m103.56,195.939c1.277,0 2.313,-1.023 2.313,-2.285c0,-1.262 -1.036,-2.285 -2.313,-2.285c-1.278,0 -2.314,1.023 -2.314,2.285c0,1.262 1.036,2.285 2.314,2.285z"/>
   </g>
  </g>
  <g id="svg_86" transform="matrix(0.69874,0,0,0.69874,65.7088,66.5785) ">
   <path id="svg_87" fill="rgb(213,218,223)" d="m192,77c0,-0.552 -0.448,-1 -1,-1l-36,0c-0.552,0 -1,0.448 -1,1c0,0.552 0.448,1 1,1l36,0c0.552,0 1,-0.448 1,-1z"/>
  </g>
  <g id="svg_88" transform="matrix(0.69874,0,0,0.69874,65.7088,66.5785) ">
   <path id="svg_89" fill="rgb(213,218,223)" d="m186,97c0,-0.552 -0.448,-1 -1,-1l-30,0c-0.552,0 -1,0.448 -1,1c0,0.552 0.448,1 1,1l30,0c0.552,0 1,-0.448 1,-1z"/>
  </g>
  <g id="svg_90" transform="matrix(0.69874,0,0,0.69874,65.7088,66.5785) ">
   <path id="svg_91" fill="rgb(213,218,223)" d="m201,87c0,-0.552 -0.448,-1 -1,-1l-45,0c-0.552,0 -1,0.448 -1,1c0,0.552 0.448,1 1,1l45,0c0.552,0 1,-0.448 1,-1z"/>
  </g>
  <g id="svg_92" transform="matrix(0.69874,0,0,0.69874,65.7088,66.5785) ">
   <path id="svg_93" fill="rgb(213,218,223)" d="m207,82c0,-0.552 -0.448,-1 -1,-1l-51,0c-0.552,0 -1,0.448 -1,1c0,0.552 0.448,1 1,1l51,0c0.552,0 1,-0.448 1,-1z"/>
  </g>
  <g id="svg_94" transform="matrix(0.69874,0,0,0.69874,65.7088,66.5785) ">
   <path id="svg_95" fill="rgb(213,218,223)" d="m207,92c0,-0.552 -0.448,-1 -1,-1l-51,0c-0.552,0 -1,0.448 -1,1c0,0.552 0.448,1 1,1l51,0c0.552,0 1,-0.448 1,-1z"/>
  </g>
  <g id="svg_96">
   <g id="svg_97" transform="matrix(0.69874,0,0,0.69874,65.7088,66.5785) ">
    <rect id="svg_98" fill="rgb(230,233,236)" height="36.577" width="56.029" y="39.377" x="153.092"/>
   </g>
   <g id="svg_99" transform="matrix(0.69874,0,0,0.69874,65.7088,66.5785) ">
    <path id="svg_100" fill="rgb(248,249,250)" fill-rule="nonzero" d="m218.113,79.237c0,0 -14.677,-27.914 -25.785,-30.18c-11.107,-2.267 -15.458,19.696 -22.104,16.783c-1.235,-0.541 -8.041,-8.267 -13.536,-6.099c-3.953,1.559 -12.377,19.599 -12.377,19.599l73.802,0l0,-0.103z"/>
    <path id="svg_101" fill="rgb(248,249,250)" fill-rule="nonzero" d="m169.56,57.939c1.277,0 2.313,-1.023 2.313,-2.285c0,-1.262 -1.036,-2.285 -2.313,-2.285c-1.278,0 -2.314,1.023 -2.314,2.285c0,1.262 1.036,2.285 2.314,2.285z"/>
   </g>
  </g>
  <g id="svg_102" transform="matrix(0.69874,0,0,0.69874,65.7088,66.5785) ">
   <path id="svg_103" fill="rgb(213,218,223)" d="m192,146c0,-0.552 -0.448,-1 -1,-1l-36,0c-0.552,0 -1,0.448 -1,1c0,0.552 0.448,1 1,1l36,0c0.552,0 1,-0.448 1,-1z"/>
  </g>
  <g id="svg_104" transform="matrix(0.69874,0,0,0.69874,65.7088,66.5785) ">
   <path id="svg_105" fill="rgb(213,218,223)" d="m186,166c0,-0.552 -0.448,-1 -1,-1l-30,0c-0.552,0 -1,0.448 -1,1c0,0.552 0.448,1 1,1l30,0c0.552,0 1,-0.448 1,-1z"/>
  </g>
  <g id="svg_106" transform="matrix(0.69874,0,0,0.69874,65.7088,66.5785) ">
   <path id="svg_107" fill="rgb(213,218,223)" d="m201,156c0,-0.552 -0.448,-1 -1,-1l-45,0c-0.552,0 -1,0.448 -1,1c0,0.552 0.448,1 1,1l45,0c0.552,0 1,-0.448 1,-1z"/>
  </g>
  <g id="svg_108" transform="matrix(0.69874,0,0,0.69874,65.7088,66.5785) ">
   <path id="svg_109" fill="rgb(213,218,223)" d="m207,151c0,-0.552 -0.448,-1 -1,-1l-51,0c-0.552,0 -1,0.448 -1,1c0,0.552 0.448,1 1,1l51,0c0.552,0 1,-0.448 1,-1z"/>
  </g>
  <g id="svg_110" transform="matrix(0.69874,0,0,0.69874,65.7088,66.5785) ">
   <path id="svg_111" fill="rgb(213,218,223)" d="m207,161c0,-0.552 -0.448,-1 -1,-1l-51,0c-0.552,0 -1,0.448 -1,1c0,0.552 0.448,1 1,1l51,0c0.552,0 1,-0.448 1,-1z"/>
  </g>
  <g id="svg_112">
   <g id="svg_113" transform="matrix(0.69874,0,0,0.69874,65.7088,66.5785) ">
    <rect id="svg_114" fill="rgb(230,233,236)" height="36.577" width="56.029" y="108.377" x="153.092"/>
   </g>
   <g id="svg_115" transform="matrix(0.69874,0,0,0.69874,65.7088,66.5785) ">
    <path id="svg_116" fill="rgb(248,249,250)" fill-rule="nonzero" d="m218.113,148.237c0,0 -14.677,-27.914 -25.785,-30.18c-11.107,-2.267 -15.458,19.696 -22.104,16.783c-1.235,-0.541 -8.041,-8.267 -13.536,-6.099c-3.953,1.559 -12.377,19.599 -12.377,19.599l73.802,0l0,-0.103z"/>
    <path id="svg_117" fill="rgb(248,249,250)" fill-rule="nonzero" d="m169.56,126.939c1.277,0 2.313,-1.023 2.313,-2.285c0,-1.262 -1.036,-2.285 -2.313,-2.285c-1.278,0 -2.314,1.023 -2.314,2.285c0,1.262 1.036,2.285 2.314,2.285z"/>
   </g>
  </g>
  <g id="svg_118" transform="matrix(0.69874,0,0,0.69874,65.7088,66.5785) ">
   <path id="svg_119" fill="rgb(213,218,223)" d="m192,215c0,-0.552 -0.448,-1 -1,-1l-36,0c-0.552,0 -1,0.448 -1,1c0,0.552 0.448,1 1,1l36,0c0.552,0 1,-0.448 1,-1z"/>
  </g>
  <g id="svg_120" transform="matrix(0.69874,0,0,0.69874,65.7088,66.5785) ">
   <path id="svg_121" fill="rgb(213,218,223)" d="m207,220c0,-0.552 -0.448,-1 -1,-1l-51,0c-0.552,0 -1,0.448 -1,1c0,0.552 0.448,1 1,1l51,0c0.552,0 1,-0.448 1,-1z"/>
  </g>
  <g id="svg_122">
   <g id="svg_123" transform="matrix(0.69874,0,0,0.69874,65.7088,66.5785) ">
    <rect id="svg_124" fill="rgb(230,233,236)" height="36.577" width="56.029" y="177.377" x="153.092"/>
   </g>
   <g id="svg_125" transform="matrix(0.69874,0,0,0.69874,65.7088,66.5785) ">
    <path id="svg_126" fill="rgb(248,249,250)" fill-rule="nonzero" d="m218.113,217.237c0,0 -14.677,-27.914 -25.785,-30.18c-11.107,-2.267 -15.458,19.696 -22.104,16.783c-1.235,-0.541 -8.041,-8.267 -13.536,-6.099c-3.953,1.559 -12.377,19.599 -12.377,19.599l73.802,0l0,-0.103z"/>
    <path id="svg_127" fill="rgb(248,249,250)" fill-rule="nonzero" d="m169.56,195.939c1.277,0 2.313,-1.023 2.313,-2.285c0,-1.262 -1.036,-2.285 -2.313,-2.285c-1.278,0 -2.314,1.023 -2.314,2.285c0,1.262 1.036,2.285 2.314,2.285z"/>
   </g>
  </g>
  <text opacity="0.5" xml:space="preserve" text-anchor="start" font-family="Helvetica, Arial, sans-serif" font-size="12" id="svg_177" y="26.45313" x="27.5" stroke-width="0" stroke="#000" fill="#000000">Edit Livemesh Item</text>
 </g>
</svg>