<svg width="229" height="222" xmlns="http://www.w3.org/2000/svg" clip-rule="evenodd">
 <g>
  <title>background</title>
  <rect x="-1" y="-1" width="231" height="224" id="canvas_background" fill="none"/>
 </g>

 <g>
  <title>Layer 1</title>
  <rect x="-221.52947" y="-196.99998" width="547.00002" height="452.99998" fill="white" id="svg_1" stroke="null"/>
  <g transform="matrix(0.990138,0,0,0.990138,-1.87859,-0.782239) " id="svg_2">
   <path d="m186.24503,77c0,-0.552 -0.448,-1 -1,-1l-36,0c-0.552,0 -1,0.448 -1,1c0,0.552 0.448,1 1,1l36,0c0.552,0 1,-0.448 1,-1z" fill="rgb(213,218,223)" id="svg_3"/>
  </g>
  <g transform="matrix(0.990138,0,0,0.990138,-1.87859,-0.782239) " id="svg_4">
   <path d="m188.32472,97c0,-0.552 -0.448,-1 -1,-1l-30,0c-0.552,0 -1,0.448 -1,1c0,0.552 0.448,1 1,1l30,0c0.552,0 1,-0.448 1,-1z" fill="rgb(213,218,223)" id="svg_5"/>
  </g>
  <g transform="matrix(0.990138,0,0,0.990138,-1.87859,-0.782239) " id="svg_6">
   <path d="m203.32472,87c0,-0.552 -0.448,-1 -1,-1l-45,0c-0.552,0 -1,0.448 -1,1c0,0.552 0.448,1 1,1l45,0c0.552,0 1,-0.448 1,-1z" fill="rgb(213,218,223)" id="svg_7"/>
  </g>
  <g transform="matrix(0.990138,0,0,0.990138,-1.87859,-0.782239) " id="svg_8">
   <path d="m209.32472,82c0,-0.552 -0.448,-1 -1,-1l-51,0c-0.552,0 -1,0.448 -1,1c0,0.552 0.448,1 1,1l51,0c0.552,0 1,-0.448 1,-1z" fill="rgb(213,218,223)" id="svg_9"/>
  </g>
  <g transform="matrix(0.990138,0,0,0.990138,-1.87859,-0.782239) " id="svg_10">
   <path d="m209.32472,92c0,-0.552 -0.448,-1 -1,-1l-51,0c-0.552,0 -1,0.448 -1,1c0,0.552 0.448,1 1,1l51,0c0.552,0 1,-0.448 1,-1z" fill="rgb(213,218,223)" id="svg_11"/>
  </g>
  <g id="svg_12">
   <g transform="matrix(0.990138,0,0,0.990138,-1.87859,-0.782239) " id="svg_13">
    <rect x="155.41672" y="38.36704" width="56.029" height="36.577" fill="rgb(230,233,236)" id="svg_14"/>
   </g>
   <g transform="matrix(0.990138,0,0,0.990138,-1.87859,-0.782239) " id="svg_15">
    <path d="m220.43772,78.22704c0,0 -14.677,-27.914 -25.785,-30.18c-11.107,-2.267 -15.458,19.696 -22.104,16.783c-1.235,-0.541 -8.041,-8.267 -13.536,-6.099c-3.953,1.559 -12.377,19.599 -12.377,19.599l73.802,0l0,-0.103z" fill-rule="nonzero" fill="rgb(248,249,250)" id="svg_16"/>
    <path d="m171.88472,56.92904c1.277,0 2.313,-1.023 2.313,-2.285c0,-1.262 -1.036,-2.285 -2.313,-2.285c-1.278,0 -2.314,1.023 -2.314,2.285c0,1.262 1.036,2.285 2.314,2.285z" fill-rule="nonzero" fill="rgb(248,249,250)" id="svg_17"/>
   </g>
  </g>
  <g transform="matrix(1.00972,0,0,1.00972,-2.11964,-2.14769) " id="svg_18">
   <path d="m60,145.99c0,-0.546 -0.444,-0.99 -0.99,-0.99l-36.02,0c-0.546,0 -0.99,0.444 -0.99,0.99l0,0.02c0,0.546 0.444,0.99 0.99,0.99l36.02,0c0.546,0 0.99,-0.444 0.99,-0.99l0,-0.02z" fill="rgb(213,218,223)" id="svg_19"/>
  </g>
  <g transform="matrix(1.00972,0,0,1.00972,-2.11964,-2.14769) " id="svg_20">
   <path d="m54,165.99c0,-0.546 -0.444,-0.99 -0.99,-0.99l-30.02,0c-0.546,0 -0.99,0.444 -0.99,0.99l0,0.02c0,0.546 0.444,0.99 0.99,0.99l30.02,0c0.546,0 0.99,-0.444 0.99,-0.99l0,-0.02z" fill="rgb(213,218,223)" id="svg_21"/>
  </g>
  <g transform="matrix(1.00972,0,0,1.00972,-2.11964,-2.14769) " id="svg_22">
   <path d="m69,155.99c0,-0.546 -0.444,-0.99 -0.99,-0.99l-45.02,0c-0.546,0 -0.99,0.444 -0.99,0.99l0,0.02c0,0.546 0.444,0.99 0.99,0.99l45.02,0c0.546,0 0.99,-0.444 0.99,-0.99l0,-0.02z" fill="rgb(213,218,223)" id="svg_23"/>
  </g>
  <g transform="matrix(1.00972,0,0,1.00972,-2.11964,-2.14769) " id="svg_24">
   <path d="m75,150.99c0,-0.546 -0.444,-0.99 -0.99,-0.99l-51.02,0c-0.546,0 -0.99,0.444 -0.99,0.99l0,0.02c0,0.546 0.444,0.99 0.99,0.99l51.02,0c0.546,0 0.99,-0.444 0.99,-0.99l0,-0.02z" fill="rgb(213,218,223)" id="svg_25"/>
  </g>
  <g transform="matrix(1.00972,0,0,1.00972,-2.11964,-2.14769) " id="svg_26">
   <path d="m75,160.99c0,-0.546 -0.444,-0.99 -0.99,-0.99l-51.02,0c-0.546,0 -0.99,0.444 -0.99,0.99l0,0.02c0,0.546 0.444,0.99 0.99,0.99l51.02,0c0.546,0 0.99,-0.444 0.99,-0.99l0,-0.02z" fill="rgb(213,218,223)" id="svg_27"/>
  </g>
  <g id="svg_28">
   <g transform="matrix(1.00972,0,0,1.00972,-2.11964,-2.14769) " id="svg_29">
    <rect x="21.092" y="108.377" width="56.029" height="36.577" fill="rgb(230,233,236)" id="svg_30"/>
   </g>
   <g transform="matrix(1.00972,0,0,1.00972,-2.11964,-2.14769) " id="svg_31">
    <path d="m86.113,148.237c0,0 -14.677,-27.914 -25.785,-30.18c-11.107,-2.267 -15.458,19.696 -22.104,16.783c-1.235,-0.541 -8.041,-8.267 -13.536,-6.099c-3.953,1.559 -12.377,19.599 -12.377,19.599l73.802,0l0,-0.103z" fill-rule="nonzero" fill="rgb(248,249,250)" id="svg_32"/>
    <path d="m37.56,126.939c1.277,0 2.313,-1.023 2.313,-2.285c0,-1.262 -1.036,-2.285 -2.313,-2.285c-1.278,0 -2.314,1.023 -2.314,2.285c0,1.262 1.036,2.285 2.314,2.285z" fill-rule="nonzero" fill="rgb(248,249,250)" id="svg_33"/>
   </g>
  </g>
  <g transform="matrix(1.00972,0,0,1.00972,-2.11964,-2.14769) " id="svg_34">
   <path d="m60,214.99c0,-0.546 -0.444,-0.99 -0.99,-0.99l-36.02,0c-0.546,0 -0.99,0.444 -0.99,0.99l0,0.02c0,0.546 0.444,0.99 0.99,0.99l36.02,0c0.546,0 0.99,-0.444 0.99,-0.99l0,-0.02z" fill="rgb(213,218,223)" id="svg_35"/>
  </g>
  <g transform="matrix(1.00972,0,0,1.00972,-2.11964,-2.14769) " id="svg_36">
   <path d="m75,219.99c0,-0.546 -0.444,-0.99 -0.99,-0.99l-51.02,0c-0.546,0 -0.99,0.444 -0.99,0.99l0,0.02c0,0.546 0.444,0.99 0.99,0.99l51.02,0c0.546,0 0.99,-0.444 0.99,-0.99l0,-0.02z" fill="rgb(213,218,223)" id="svg_37"/>
  </g>
  <g id="svg_38">
   <g transform="matrix(1.00972,0,0,1.00972,-2.11964,-2.14769) " id="svg_39">
    <rect x="21.092" y="177.377" width="56.029" height="36.577" fill="rgb(230,233,236)" id="svg_40"/>
   </g>
   <g transform="matrix(1.00972,0,0,1.00972,-2.11964,-2.14769) " id="svg_41">
    <path d="m86.113,217.237c0,0 -14.677,-27.914 -25.785,-30.18c-11.107,-2.267 -15.458,19.696 -22.104,16.783c-1.235,-0.541 -8.041,-8.267 -13.536,-6.099c-3.953,1.559 -12.377,19.599 -12.377,19.599l73.802,0l0,-0.103z" fill-rule="nonzero" fill="rgb(248,249,250)" id="svg_42"/>
    <path d="m37.56,195.939c1.277,0 2.313,-1.023 2.313,-2.285c0,-1.262 -1.036,-2.285 -2.313,-2.285c-1.278,0 -2.314,1.023 -2.314,2.285c0,1.262 1.036,2.285 2.314,2.285z" fill-rule="nonzero" fill="rgb(248,249,250)" id="svg_43"/>
   </g>
  </g>
  <g transform="matrix(2.20554,0,0,1.00972,-106.266,-2.14769) " id="svg_44">
   <path d="m88.26174,96.99c0,-0.546 -0.203,-0.99 -0.453,-0.99l-31.094,0c-0.25,0 -0.453,0.444 -0.453,0.99l0,0.02c0,0.546 0.203,0.99 0.453,0.99l31.094,0c0.25,0 0.453,-0.444 0.453,-0.99l0,-0.02z" fill="rgb(213,218,223)" id="svg_45"/>
  </g>
  <g transform="matrix(2.20554,0,0,1.00972,-106.266,-2.14769) " id="svg_46">
   <path d="m103.26174,86.99c0,-0.546 -0.203,-0.99 -0.453,-0.99l-46.094,0c-0.25,0 -0.453,0.444 -0.453,0.99l0,0.02c0,0.546 0.203,0.99 0.453,0.99l46.094,0c0.25,0 0.453,-0.444 0.453,-0.99l0,-0.02z" fill="rgb(213,218,223)" id="svg_47"/>
  </g>
  <g transform="matrix(2.20554,0,0,1.00972,-106.266,-2.14769) " id="svg_48">
   <path d="m109.26174,81.99c0,-0.546 -0.203,-0.99 -0.453,-0.99l-52.094,0c-0.25,0 -0.453,0.444 -0.453,0.99l0,0.02c0,0.546 0.203,0.99 0.453,0.99l52.094,0c0.25,0 0.453,-0.444 0.453,-0.99l0,-0.02z" fill="rgb(213,218,223)" id="svg_49"/>
  </g>
  <g transform="matrix(2.20554,0,0,1.00972,-106.266,-2.14769) " id="svg_50">
   <path d="m109.26174,91.99c0,-0.546 -0.203,-0.99 -0.453,-0.99l-52.094,0c-0.25,0 -0.453,0.444 -0.453,0.99l0,0.02c0,0.546 0.203,0.99 0.453,0.99l52.094,0c0.25,0 0.453,-0.444 0.453,-0.99l0,-0.02z" fill="rgb(213,218,223)" id="svg_51"/>
  </g>
  <g id="svg_52">
   <g transform="matrix(2.20554,0,0,1.00972,-106.266,-2.14769) " id="svg_53">
    <rect x="55.35374" y="39.377" width="56.029" height="36.577" fill="rgb(230,233,236)" id="svg_54"/>
   </g>
   <g transform="matrix(1.00972,0,0,1.00972,-2.11964,-2.14769) " id="svg_55">
    <path d="m82.78685,79.237c0,0 -14.677,-27.914 -25.785,-30.18c-11.107,-2.267 -15.458,19.696 -22.104,16.783c-1.235,-0.541 -8.041,-8.267 -13.536,-6.099c-3.953,1.559 -12.377,19.599 -12.377,19.599l73.802,0l0,-0.103z" fill-rule="nonzero" fill="rgb(248,249,250)" id="svg_56"/>
    <path d="m34.23385,57.939c1.277,0 2.313,-1.023 2.313,-2.285c0,-1.262 -1.036,-2.285 -2.313,-2.285c-1.278,0 -2.314,1.023 -2.314,2.285c0,1.262 1.036,2.285 2.314,2.285z" fill-rule="nonzero" fill="rgb(248,249,250)" id="svg_57"/>
   </g>
  </g>
  <g transform="matrix(1.00972,0,0,1.00972,-2.11964,-2.14769) " id="svg_58">
   <path d="m126,214.99c0,-0.546 -0.444,-0.99 -0.99,-0.99l-36.02,0c-0.546,0 -0.99,0.444 -0.99,0.99l0,0.02c0,0.546 0.444,0.99 0.99,0.99l36.02,0c0.546,0 0.99,-0.444 0.99,-0.99l0,-0.02z" fill="rgb(213,218,223)" id="svg_59"/>
  </g>
  <g transform="matrix(1.00972,0,0,1.00972,-2.11964,-2.14769) " id="svg_60">
   <path d="m141,219.99c0,-0.546 -0.444,-0.99 -0.99,-0.99l-51.02,0c-0.546,0 -0.99,0.444 -0.99,0.99l0,0.02c0,0.546 0.444,0.99 0.99,0.99l51.02,0c0.546,0 0.99,-0.444 0.99,-0.99l0,-0.02z" fill="rgb(213,218,223)" id="svg_61"/>
  </g>
  <g id="svg_62">
   <g transform="matrix(1.00972,0,0,1.00972,-2.11964,-2.14769) " id="svg_63">
    <rect x="87.092" y="177.377" width="56.029" height="36.577" fill="rgb(230,233,236)" id="svg_64"/>
   </g>
   <g transform="matrix(1.00972,0,0,1.00972,-2.11964,-2.14769) " id="svg_65">
    <path d="m152.113,217.237c0,0 -14.677,-27.914 -25.785,-30.18c-11.107,-2.267 -15.458,19.696 -22.104,16.783c-1.235,-0.541 -8.041,-8.267 -13.536,-6.099c-3.953,1.559 -12.377,19.599 -12.377,19.599l73.802,0l0,-0.103z" fill-rule="nonzero" fill="rgb(248,249,250)" id="svg_66"/>
    <path d="m103.56,195.939c1.277,0 2.313,-1.023 2.313,-2.285c0,-1.262 -1.036,-2.285 -2.313,-2.285c-1.278,0 -2.314,1.023 -2.314,2.285c0,1.262 1.036,2.285 2.314,2.285z" fill-rule="nonzero" fill="rgb(248,249,250)" id="svg_67"/>
   </g>
  </g>
  <g transform="matrix(1.00972,0,0,1.00972,-2.11964,-2.14769) " id="svg_68">
   <path d="m192,145.99c0,-0.546 -0.444,-0.99 -0.99,-0.99l-36.02,0c-0.546,0 -0.99,0.444 -0.99,0.99l0,0.02c0,0.546 0.444,0.99 0.99,0.99l36.02,0c0.546,0 0.99,-0.444 0.99,-0.99l0,-0.02z" fill="rgb(213,218,223)" id="svg_69"/>
  </g>
  <g transform="matrix(1.00972,0,0,1.00972,-2.11964,-2.14769) " id="svg_70">
   <path d="m186,165.99c0,-0.546 -0.444,-0.99 -0.99,-0.99l-30.02,0c-0.546,0 -0.99,0.444 -0.99,0.99l0,0.02c0,0.546 0.444,0.99 0.99,0.99l30.02,0c0.546,0 0.99,-0.444 0.99,-0.99l0,-0.02z" fill="rgb(213,218,223)" id="svg_71"/>
  </g>
  <g transform="matrix(1.00972,0,0,1.00972,-2.11964,-2.14769) " id="svg_72">
   <path d="m201,155.99c0,-0.546 -0.444,-0.99 -0.99,-0.99l-45.02,0c-0.546,0 -0.99,0.444 -0.99,0.99l0,0.02c0,0.546 0.444,0.99 0.99,0.99l45.02,0c0.546,0 0.99,-0.444 0.99,-0.99l0,-0.02z" fill="rgb(213,218,223)" id="svg_73"/>
  </g>
  <g transform="matrix(1.00972,0,0,1.00972,-2.11964,-2.14769) " id="svg_74">
   <path d="m207,150.99c0,-0.546 -0.444,-0.99 -0.99,-0.99l-51.02,0c-0.546,0 -0.99,0.444 -0.99,0.99l0,0.02c0,0.546 0.444,0.99 0.99,0.99l51.02,0c0.546,0 0.99,-0.444 0.99,-0.99l0,-0.02z" fill="rgb(213,218,223)" id="svg_75"/>
  </g>
  <g transform="matrix(1.00972,0,0,1.00972,-2.11964,-2.14769) " id="svg_76">
   <path d="m207,160.99c0,-0.546 -0.444,-0.99 -0.99,-0.99l-51.02,0c-0.546,0 -0.99,0.444 -0.99,0.99l0,0.02c0,0.546 0.444,0.99 0.99,0.99l51.02,0c0.546,0 0.99,-0.444 0.99,-0.99l0,-0.02z" fill="rgb(213,218,223)" id="svg_77"/>
  </g>
  <g id="svg_78">
   <g transform="matrix(1.00972,0,0,1.00972,-2.11964,-2.14769) " id="svg_79">
    <rect x="153.092" y="108.377" width="56.029" height="36.577" fill="rgb(230,233,236)" id="svg_80"/>
   </g>
   <g transform="matrix(1.00972,0,0,1.00972,-2.11964,-2.14769) " id="svg_81">
    <path d="m218.113,148.237c0,0 -14.677,-27.914 -25.785,-30.18c-11.107,-2.267 -15.458,19.696 -22.104,16.783c-1.235,-0.541 -8.041,-8.267 -13.536,-6.099c-3.953,1.559 -12.377,19.599 -12.377,19.599l73.802,0l0,-0.103z" fill-rule="nonzero" fill="rgb(248,249,250)" id="svg_82"/>
    <path d="m169.56,126.939c1.277,0 2.313,-1.023 2.313,-2.285c0,-1.262 -1.036,-2.285 -2.313,-2.285c-1.278,0 -2.314,1.023 -2.314,2.285c0,1.262 1.036,2.285 2.314,2.285z" fill-rule="nonzero" fill="rgb(248,249,250)" id="svg_83"/>
   </g>
  </g>
  <g transform="matrix(1.00972,0,0,1.00972,-2.11964,-2.14769) " id="svg_84">
   <path d="m192,214.99c0,-0.546 -0.444,-0.99 -0.99,-0.99l-36.02,0c-0.546,0 -0.99,0.444 -0.99,0.99l0,0.02c0,0.546 0.444,0.99 0.99,0.99l36.02,0c0.546,0 0.99,-0.444 0.99,-0.99l0,-0.02z" fill="rgb(213,218,223)" id="svg_85"/>
  </g>
  <g transform="matrix(1.00972,0,0,1.00972,-2.11964,-2.14769) " id="svg_86">
   <path d="m207,219.99c0,-0.546 -0.444,-0.99 -0.99,-0.99l-51.02,0c-0.546,0 -0.99,0.444 -0.99,0.99l0,0.02c0,0.546 0.444,0.99 0.99,0.99l51.02,0c0.546,0 0.99,-0.444 0.99,-0.99l0,-0.02z" fill="rgb(213,218,223)" id="svg_87"/>
  </g>
  <g id="svg_88">
   <g transform="matrix(1.00972,0,0,1.00972,-2.11964,-2.14769) " id="svg_89">
    <rect x="153.092" y="177.377" width="56.029" height="36.577" fill="rgb(230,233,236)" id="svg_90"/>
   </g>
   <g transform="matrix(1.00972,0,0,1.00972,-2.11964,-2.14769) " id="svg_91">
    <path d="m218.113,217.237c0,0 -14.677,-27.914 -25.785,-30.18c-11.107,-2.267 -15.458,19.696 -22.104,16.783c-1.235,-0.541 -8.041,-8.267 -13.536,-6.099c-3.953,1.559 -12.377,19.599 -12.377,19.599l73.802,0l0,-0.103z" fill-rule="nonzero" fill="rgb(248,249,250)" id="svg_92"/>
    <path d="m169.56,195.939c1.277,0 2.313,-1.023 2.313,-2.285c0,-1.262 -1.036,-2.285 -2.313,-2.285c-1.278,0 -2.314,1.023 -2.314,2.285c0,1.262 1.036,2.285 2.314,2.285z" fill-rule="nonzero" fill="rgb(248,249,250)" id="svg_93"/>
   </g>
  </g>
  <g id="svg_101" stroke="null">
   <g transform="matrix(1.057886835471178,0,0,1.015161133277893,-7.160181275616296,-4.587185101448966) " id="svg_97" stroke="null">
    <rect x="86.73942" y="112.09414" width="56.029" height="36.577" fill="rgb(230,233,236)" id="svg_96" stroke="null"/>
   </g>
   <g transform="matrix(1.057886835471178,0,0,1.015161133277893,-7.160181275616296,-4.587185101448966) " id="svg_100" stroke="null">
    <path d="m151.76042,151.95414c0,0 -14.677,-27.914 -25.785,-30.18c-11.107,-2.267 -15.458,19.696 -22.104,16.783c-1.235,-0.541 -8.041,-8.267 -13.536,-6.099c-3.953,1.559 -12.377,19.599 -12.377,19.599l73.802,0l0,-0.103z" fill-rule="nonzero" fill="rgb(248,249,250)" id="svg_98" stroke="null"/>
    <path d="m103.20742,130.65614c1.277,0 2.313,-1.023 2.313,-2.285c0,-1.262 -1.036,-2.285 -2.313,-2.285c-1.278,0 -2.314,1.023 -2.314,2.285c0,1.262 1.036,2.285 2.314,2.285z" fill-rule="nonzero" fill="rgb(248,249,250)" id="svg_99" stroke="null"/>
   </g>
  </g>
  <g transform="matrix(1.00972,0,0,1.00972,-2.11964,-2.14769) " id="svg_103">
   <path d="m118.63746,167.69722c0,-0.552 -0.448,-1 -1,-1l-30,0c-0.552,0 -1,0.448 -1,1c0,0.552 0.448,1 1,1l30,0c0.552,0 1,-0.448 1,-1z" fill="rgb(213,218,223)" id="svg_102"/>
  </g>
  <g transform="matrix(0.990138,0,0,0.990138,-1.87859,-0.782239) " id="svg_105">
   <path d="m133.63746,157.69722c0,-0.552 -0.448,-1 -1,-1l-45,0c-0.552,0 -1,0.448 -1,1c0,0.552 0.448,1 1,1l45,0c0.552,0 1,-0.448 1,-1z" fill="rgb(213,218,223)" id="svg_104"/>
  </g>
  <g transform="matrix(0.990138,0,0,0.990138,-1.87859,-0.782239) " id="svg_107">
   <path d="m139.63746,152.69722c0,-0.552 -0.448,-1 -1,-1l-51,0c-0.552,0 -1,0.448 -1,1c0,0.552 0.448,1 1,1l51,0c0.552,0 1,-0.448 1,-1z" fill="rgb(213,218,223)" id="svg_106"/>
  </g>
  <g transform="matrix(1.00972,0,0,1.00972,-2.11964,-2.14769) " id="svg_109">
   <path d="m139.63746,162.69722c0,-0.552 -0.448,-1 -1,-1l-51,0c-0.552,0 -1,0.448 -1,1c0,0.552 0.448,1 1,1l51,0c0.552,0 1,-0.448 1,-1z" fill="rgb(213,218,223)" id="svg_108"/>
  </g>
  <text opacity="0.5" xml:space="preserve" text-anchor="start" font-family="Helvetica, Arial, sans-serif" font-size="12" id="svg_94" y="20.45313" x="16.5" fill-opacity="null" stroke-opacity="null" stroke-width="0" stroke="null" fill="#000000">Edit Livemesh Grid</text>
 </g>
</svg>